<?xml version="1.0" standalone="no"?>
<!DOCTYPE svg PUBLIC "-//W3C//DTD SVG 20010904//EN"
 "http://www.w3.org/TR/2001/REC-SVG-20010904/DTD/svg10.dtd">
<svg version="1.0" xmlns="http://www.w3.org/2000/svg"
 width="1528.000000pt" height="352.000000pt" viewBox="0 0 1528.000000 352.000000"
 preserveAspectRatio="xMidYMid meet">
<metadata>
Created by potrace 1.16, written by Peter Selinger 2001-2019
</metadata>
<g transform="translate(0.000000,352.000000) scale(0.100000,-0.100000)"
fill="#000000" stroke="none">
<path d="M0 3285 l0 -235 7640 0 7640 0 0 235 0 235 -7640 0 -7640 0 0 -235z
m845 63 c14 -21 14 -23 -1 -27 -9 -1 -21 4 -26 13 -11 20 -42 21 -57 2 -17
-20 -10 -77 12 -90 12 -8 22 -8 35 2 9 7 24 15 32 18 8 3 23 18 32 35 13 22
24 29 46 29 16 0 35 -7 42 -15 7 -8 16 -15 21 -15 5 0 9 7 9 15 0 19 70 21 88
3 18 -18 16 -98 -2 -98 -10 0 -16 14 -18 43 -2 29 -8 42 -18 42 -10 0 -16 -13
-18 -42 -3 -44 -24 -59 -36 -27 -5 14 -7 14 -22 0 -22 -23 -70 -20 -87 4 l-14
20 -18 -20 c-24 -27 -86 -27 -109 -1 -23 26 -23 86 0 112 25 28 88 26 109 -3z
m795 12 c0 -5 -20 -10 -45 -10 -38 0 -45 -3 -45 -20 0 -17 7 -20 40 -20 22 0
40 -4 40 -10 0 -5 -18 -10 -40 -10 -36 0 -40 -3 -40 -24 0 -22 5 -24 50 -28
43 -2 53 0 65 18 12 18 12 24 -2 43 -19 28 -9 39 20 22 15 -10 22 -10 25 -2 2
6 12 11 23 11 19 0 19 -1 3 -26 -16 -24 -16 -27 0 -55 14 -24 15 -29 3 -29 -8
0 -20 7 -28 16 -11 14 -13 14 -21 0 -7 -12 -27 -16 -88 -16 l-80 0 0 75 0 75
60 0 c33 0 60 -4 60 -10z"/>
<path d="M221 2656 c-110 -61 -22 -227 92 -175 27 12 57 58 57 88 0 75 -83
124 -149 87z"/>
<path d="M5250 2025 l0 -245 -85 0 -85 0 0 -315 0 -315 2505 0 2505 0 0 315 0
315 -1365 0 -1365 0 0 245 0 245 -1055 0 -1055 0 0 -245z m2080 -7 l0 -223
-1025 0 -1025 0 0 223 0 222 1025 0 1025 0 0 -222z m2730 -553 l0 -285 -2475
0 -2475 0 0 285 0 285 2475 0 2475 0 0 -285z"/>
<path d="M5162 1638 c-8 -8 -12 -64 -12 -188 0 -124 4 -180 12 -188 17 -17
1269 -17 1286 0 8 8 12 65 12 190 0 165 -1 178 -19 188 -30 15 -1263 14 -1279
-2z"/>
<path d="M6536 1634 c-13 -13 -16 -44 -16 -188 0 -120 4 -176 12 -184 17 -17
1519 -17 1536 0 8 8 12 65 12 190 0 165 -1 178 -19 188 -13 7 -270 10 -765 10
-664 0 -746 -2 -760 -16z m322 -201 l-3 -68 -55 0 -55 0 -3 68 -3 67 61 0 61
0 -3 -67z"/>
<path d="M8152 1638 c-8 -8 -12 -64 -12 -188 0 -124 4 -180 12 -188 17 -17
1789 -17 1806 0 17 17 17 359 0 376 -17 17 -1789 17 -1806 0z m327 -185 l50
-88 -55 -3 c-29 -2 -79 -2 -108 0 l-55 3 50 88 c28 48 54 87 59 87 5 0 31 -39
59 -87z"/>
<path d="M255 2190 c-3 -5 -16 -10 -29 -10 -37 0 -46 -19 -46 -96 0 -56 3 -73
16 -78 28 -11 140 -6 152 6 7 7 12 40 12 78 0 71 -10 90 -46 90 -13 0 -26 5
-29 10 -3 6 -10 10 -15 10 -5 0 -12 -4 -15 -10z"/>
<path d="M2784 2086 c-3 -7 -4 -42 -2 -77 l3 -64 95 0 95 0 0 65 0 65 -50 3
c-27 2 -54 7 -59 13 -15 14 -76 11 -82 -5z"/>
<path d="M2440 1790 c0 -7 213 -10 620 -10 407 0 620 3 620 10 0 7 -213 10
-620 10 -407 0 -620 -3 -620 -10z"/>
<path d="M173 1673 c-9 -3 -13 -28 -13 -76 l0 -72 110 0 110 0 0 72 c0 60 -3
72 -17 76 -23 6 -174 6 -190 0z"/>
<path d="M202 1218 c-7 -7 -12 -44 -12 -94 0 -65 3 -83 16 -88 28 -11 120 -6
132 6 7 7 12 37 12 68 0 50 -3 59 -33 88 -35 34 -91 44 -115 20z"/>
<path d="M232 255 c-21 -9 -38 -27 -48 -50 -20 -49 1 -100 51 -120 31 -14 39
-14 70 0 78 32 78 138 1 170 -41 18 -33 18 -74 0z m95 -27 c51 -48 15 -138
-56 -138 -47 0 -81 32 -81 79 0 72 84 109 137 59z"/>
</g>
</svg>
