<?xml version="1.0" standalone="no"?>
<!DOCTYPE svg PUBLIC "-//W3C//DTD SVG 20010904//EN"
 "http://www.w3.org/TR/2001/REC-SVG-20010904/DTD/svg10.dtd">
<svg version="1.0" xmlns="http://www.w3.org/2000/svg"
 width="1101.000000pt" height="766.000000pt" viewBox="0 0 1101.000000 766.000000"
 preserveAspectRatio="xMidYMid meet">
<metadata>
Created by potrace 1.16, written by Peter Selinger 2001-2019
</metadata>
<g transform="translate(0.000000,766.000000) scale(0.100000,-0.100000)"
fill="#000000" stroke="none">
<path d="M4000 7355 l0 -75 49 0 c54 0 77 15 87 56 3 13 12 24 19 24 7 0 20 3
29 6 9 3 16 2 16 -4 0 -6 -14 -15 -31 -21 -24 -8 -30 -15 -27 -33 3 -20 10
-23 53 -26 l51 -3 -6 53 c-5 52 -6 53 -39 56 -18 2 -38 -1 -44 -7 -15 -15 -27
-14 -27 3 0 29 -30 46 -81 46 l-49 0 0 -75z"/>
<path d="M4266 7408 c-9 -16 -12 -38 -7 -73 l6 -50 78 -3 77 -2 0 50 c0 45 -2
50 -25 56 -14 3 -35 4 -46 1 -29 -8 -49 2 -49 24 0 26 -16 24 -34 -3z"/>
<path d="M4490 7355 l0 -75 110 1 110 0 0 49 c0 45 -3 50 -25 56 -14 3 -36 3
-50 0 -33 -8 -33 -30 0 -24 34 7 43 -10 11 -18 -14 -3 -30 -12 -37 -20 -6 -8
-27 -14 -45 -14 l-34 0 0 60 c0 53 -2 60 -20 60 -18 0 -20 -7 -20 -75z"/>
<path d="M5012 7418 c-28 -28 5 -78 50 -78 10 0 18 -7 18 -15 0 -17 -25 -20
-35 -5 -9 15 -45 12 -45 -3 0 -23 23 -37 61 -37 21 0 42 7 49 15 12 14 15 14
30 0 17 -16 47 -19 74 -9 26 10 18 26 -11 22 -15 -2 -28 2 -30 10 -3 8 7 12
31 12 32 0 36 -3 36 -25 0 -20 5 -25 25 -25 23 0 25 4 25 45 0 59 23 60 42 3
11 -31 21 -44 36 -46 12 -2 22 -2 22 0 0 2 9 27 20 56 l20 52 -24 0 c-16 0
-26 -7 -30 -22 l-7 -23 -9 23 c-8 19 -17 22 -65 22 -50 0 -55 -2 -55 -22 l0
-22 -16 22 c-27 39 -94 25 -94 -20 0 -17 -1 -17 -20 2 -11 11 -29 20 -39 20
-11 0 -22 4 -26 9 -8 15 15 25 28 12 13 -13 47 -15 47 -2 0 34 -81 56 -108 29z"/>
<path d="M7243 7423 c-7 -2 -13 -11 -13 -19 0 -9 -11 -14 -30 -14 -30 0 -30
-1 -30 -55 0 -48 2 -55 20 -55 17 0 20 7 20 45 0 57 18 59 22 3 l3 -43 67 -2
c51 -2 69 2 80 14 11 14 9 15 -20 11 -22 -3 -32 -1 -32 9 0 8 12 13 30 13 22
0 30 5 30 18 0 26 -20 42 -50 42 -36 0 -64 -32 -58 -65 3 -14 1 -25 -3 -25
-14 0 -10 68 4 74 10 5 10 7 0 12 -7 3 -13 14 -13 25 0 19 -5 21 -27 12z"/>
<path d="M7516 7408 c-13 -17 -24 -22 -52 -19 -19 1 -42 -3 -50 -9 -17 -15
-19 -71 -2 -88 16 -16 71 -15 86 0 10 10 15 10 20 1 4 -7 39 -11 90 -12 l82
-1 0 55 c0 48 -2 55 -20 55 -15 0 -20 -7 -20 -29 0 -16 -3 -36 -6 -45 -10 -27
-24 -7 -24 35 0 37 -2 39 -30 39 -23 0 -30 4 -30 20 0 27 -25 25 -44 -2z"/>
<path d="M3380 7380 c0 -6 7 -27 15 -47 17 -41 19 -73 5 -73 -5 0 -10 -5 -10
-11 0 -6 12 -9 27 -7 23 2 31 12 46 53 10 27 19 51 21 52 4 4 75 -32 76 -39 0
-4 -17 -4 -37 -1 -35 6 -37 5 -24 -10 17 -22 74 -22 92 -1 16 20 1 48 -30 52
-11 2 -21 7 -21 11 0 4 15 5 32 3 30 -5 32 -3 19 12 -18 22 -77 21 -91 -1 -11
-17 -11 -17 -6 0 4 13 0 17 -18 17 -18 0 -26 -7 -31 -27 l-7 -28 -10 28 c-9
26 -48 40 -48 17z"/>
<path d="M3610 7335 c0 -52 1 -55 25 -55 17 0 25 6 25 17 0 14 2 15 18 1 12
-11 42 -16 109 -16 l91 -1 -5 42 c-2 23 -6 48 -9 55 -4 15 -66 16 -82 0 -9 -9
-15 -9 -24 0 -17 17 -58 15 -80 -5 -17 -15 -18 -15 -18 0 0 11 -8 17 -25 17
-24 0 -25 -3 -25 -55z"/>
<path d="M5502 7378 c-15 -15 -16 -70 0 -86 7 -7 26 -12 43 -12 17 0 36 5 43
12 9 9 15 9 24 0 17 -17 63 -15 79 4 12 14 10 16 -16 12 -16 -2 -30 2 -32 10
-3 8 6 12 26 12 23 0 31 5 31 18 0 46 -69 59 -96 17 -9 -14 -14 -32 -10 -40 4
-12 0 -14 -19 -9 -16 4 -25 2 -25 -6 0 -6 -4 -8 -10 -5 -5 3 -10 17 -10 30 0
13 5 27 10 30 6 3 10 1 10 -5 0 -6 8 -10 18 -8 9 2 17 10 17 18 0 19 -65 26
-83 8z"/>
<path d="M5956 7374 c-32 -31 -12 -94 29 -94 14 0 25 -4 25 -10 0 -5 -13 -7
-31 -3 -25 5 -31 3 -27 -8 3 -8 22 -15 47 -17 38 -3 43 -1 54 27 9 22 16 28
24 20 14 -14 75 -7 81 9 3 10 -4 13 -24 10 -15 -2 -29 2 -31 10 -3 8 7 12 31
12 20 0 36 4 36 9 0 10 69 -21 70 -31 0 -4 -17 -4 -37 -1 -35 6 -37 5 -24 -10
17 -22 74 -22 92 -1 16 20 1 48 -30 52 -11 2 -21 7 -21 11 0 4 15 5 32 3 30
-5 32 -3 19 12 -18 21 -77 21 -89 -1 -9 -16 -11 -16 -27 0 -22 22 -71 22 -84
0 -10 -17 -10 -17 -11 0 0 13 -9 17 -44 17 -27 0 -51 -6 -60 -16z"/>
<path d="M4400 7040 c-328 -31 -601 -103 -860 -227 -347 -165 -609 -415 -755
-720 l-40 -83 -120 0 c-517 0 -1074 -151 -1430 -388 -113 -75 -266 -217 -331
-308 -60 -84 -121 -216 -139 -299 -46 -220 15 -418 184 -597 161 -170 398
-295 696 -367 50 -12 96 -24 103 -26 7 -3 -38 -31 -100 -62 -215 -110 -353
-224 -448 -368 -129 -198 -128 -433 4 -655 199 -337 637 -602 1166 -703 98
-18 149 -22 345 -21 292 0 436 25 660 114 l79 31 24 -33 c52 -69 272 -276 362
-340 107 -76 288 -183 296 -175 3 2 -41 32 -98 66 -57 34 -146 92 -198 129
-93 66 -284 245 -351 330 l-35 43 -56 -25 c-227 -100 -552 -150 -826 -127
-678 58 -1272 422 -1427 876 -23 66 -31 214 -15 288 44 213 251 426 558 574
63 30 112 56 109 59 -2 2 -58 17 -123 34 -533 130 -860 400 -903 744 -42 345
218 698 684 926 332 163 829 269 1260 270 l80 0 58 113 c75 146 160 259 290
383 333 321 809 501 1409 533 765 41 1617 -196 2263 -629 l105 -71 110 35
c484 153 1089 182 1610 75 326 -66 649 -197 892 -359 525 -352 692 -836 452
-1313 -46 -90 -142 -223 -230 -316 -46 -49 -84 -91 -84 -94 0 -3 44 -29 98
-57 428 -228 715 -524 813 -840 33 -105 34 -274 2 -375 -131 -414 -697 -669
-1557 -701 l-179 -7 -116 -116 c-463 -464 -1206 -757 -2166 -852 -199 -20
-749 -17 -960 5 -511 53 -955 168 -1339 345 -49 23 -91 39 -94 37 -7 -8 144
-80 268 -129 322 -127 689 -214 1115 -264 121 -14 229 -18 560 -18 364 1 431
3 594 23 892 110 1592 400 2034 843 l118 119 133 0 c238 0 538 37 767 95 222
56 422 146 565 253 300 225 378 549 214 888 -122 253 -418 528 -755 701 -49
25 -92 47 -94 49 -2 2 33 42 78 90 253 267 373 580 332 862 -54 366 -330 686
-790 917 -364 181 -772 278 -1231 292 -367 11 -697 -32 -1036 -133 l-122 -36
-73 49 c-370 249 -809 440 -1259 547 -148 35 -327 68 -480 86 -117 14 -554 21
-670 10z"/>
<path d="M6565 5676 l-140 -73 -3 -71 -3 -70 88 -8 c113 -11 315 -11 418 1
l80 8 -103 18 c-56 10 -120 16 -142 14 -32 -3 -40 0 -40 13 -1 16 -2 15 -11 0
-14 -24 -28 -22 -39 5 l-9 22 0 -22 c-2 -47 -21 -21 -21 27 0 37 4 50 15 50 8
0 17 -11 21 -25 3 -14 10 -25 15 -25 13 0 20 59 17 137 l-3 72 -140 -73z"/>
<path d="M5408 5719 l-38 -19 0 -150 0 -150 40 0 40 0 0 170 c0 94 -1 170 -2
170 -2 -1 -20 -10 -40 -21z"/>
<path d="M8936 5644 c-48 -52 -87 -96 -85 -98 2 -2 37 -25 77 -50 39 -26 72
-50 72 -53 0 -3 -18 -25 -40 -49 -22 -24 -40 -47 -40 -51 0 -5 30 -26 66 -47
l65 -39 -42 -43 -42 -43 143 -71 c78 -39 144 -69 146 -67 3 2 -25 36 -62 75
l-65 72 57 53 57 53 -57 43 -56 43 43 50 c76 89 79 70 -36 200 -56 64 -104
117 -107 117 -3 0 -45 -42 -94 -95z m261 -112 l26 -33 -34 -37 c-19 -20 -45
-49 -58 -64 l-23 -26 57 -44 56 -43 -57 -52 -57 -51 54 -57 53 -56 -74 34
c-41 19 -92 42 -113 53 l-37 18 41 42 42 43 -66 41 c-74 46 -74 51 -18 104 17
17 31 35 31 40 0 6 -34 32 -76 59 l-76 47 79 85 78 85 73 -77 c40 -43 85 -93
99 -111z"/>
<path d="M2908 5709 l-38 -19 0 -150 0 -150 40 0 40 0 0 170 c0 94 -1 170 -2
170 -2 -1 -20 -10 -40 -21z"/>
<path d="M1836 5624 c-48 -52 -87 -96 -85 -98 2 -2 37 -25 77 -50 39 -26 72
-50 72 -53 0 -3 -18 -25 -40 -49 -22 -24 -40 -47 -40 -51 0 -5 30 -26 66 -47
l65 -39 -42 -43 -42 -43 143 -71 c78 -39 144 -69 146 -67 3 2 -25 36 -62 75
l-65 72 57 53 57 53 -57 43 -56 43 43 50 c76 89 79 70 -36 200 -56 64 -104
117 -107 117 -3 0 -45 -42 -94 -95z m261 -112 l26 -33 -34 -37 c-19 -20 -45
-49 -58 -64 l-23 -26 57 -44 56 -43 -57 -52 -57 -51 54 -57 53 -56 -74 34
c-41 19 -92 42 -113 53 l-37 18 41 42 42 43 -66 41 c-74 46 -74 51 -18 104 17
17 31 35 31 40 0 6 -34 32 -76 59 l-76 47 79 85 78 85 73 -77 c40 -43 85 -93
99 -111z"/>
<path d="M3960 5375 l0 -295 295 0 295 0 0 295 0 295 -295 0 -295 0 0 -295z
m262 175 c60 -17 68 -31 68 -120 0 -75 -12 -109 -29 -81 -6 8 -16 8 -40 0 -32
-11 -131 -8 -162 5 -12 5 -18 1 -22 -14 -13 -50 30 -74 125 -69 72 4 91 -12
28 -23 -39 -7 -104 1 -142 17 -23 9 -25 -22 -4 -50 11 -16 29 -20 88 -23 85
-4 128 8 128 38 0 11 5 20 11 20 6 0 9 -12 7 -27 -4 -40 -47 -57 -136 -57 -57
1 -79 5 -100 21 l-27 20 -2 149 c-2 82 1 155 6 162 22 34 132 51 203 32z m149
-145 c11 -38 55 -83 90 -90 43 -10 43 -21 -1 -34 -43 -13 -83 -57 -94 -104 -8
-33 -21 -28 -31 10 -9 38 -51 80 -92 94 -41 13 -42 25 -3 34 39 9 87 56 95 95
8 37 26 35 36 -5z"/>
<path d="M4040 5425 c0 -24 6 -38 20 -45 35 -18 112 -23 155 -8 37 12 40 16
43 52 3 34 1 38 -15 31 -32 -14 -127 -17 -166 -7 l-37 10 0 -33z"/>
<path d="M5540 5560 c0 -9 90 -40 117 -40 9 0 13 -17 13 -58 0 -32 5 -63 12
-70 9 -9 9 -15 0 -24 -14 -14 -16 -118 -3 -118 5 0 16 -3 25 -6 14 -5 16 10
16 135 l0 140 -83 26 c-93 28 -97 29 -97 15z"/>
<path d="M3040 5550 c0 -9 90 -40 117 -40 9 0 13 -17 13 -58 0 -32 5 -63 12
-70 9 -9 9 -15 0 -24 -14 -14 -16 -118 -3 -118 5 0 16 -3 25 -6 14 -5 16 10
16 135 l0 140 -83 26 c-93 28 -97 29 -97 15z"/>
<path d="M5401 5358 c0 -18 -7 -28 -16 -28 -13 0 -15 -22 -15 -135 l0 -135 40
-20 40 -20 -1 182 c-1 101 -4 171 -6 156 -2 -16 -10 -28 -18 -28 -8 0 -16 12
-18 28 l-4 27 -2 -27z"/>
<path d="M2901 5348 c0 -18 -7 -28 -16 -28 -13 0 -15 -22 -15 -135 l0 -135 40
-20 40 -20 -1 182 c-1 101 -4 171 -6 156 -2 -16 -10 -28 -18 -28 -8 0 -16 12
-18 28 l-4 27 -2 -27z"/>
<path d="M6668 3449 l-38 -19 0 -150 0 -150 40 0 40 0 0 170 c0 94 -1 170 -2
170 -2 -1 -20 -10 -40 -21z"/>
<path d="M6800 3290 c0 -9 90 -40 117 -40 9 0 13 -17 13 -58 0 -32 5 -63 12
-70 9 -9 9 -15 0 -24 -14 -14 -16 -118 -3 -118 5 0 16 -3 25 -6 14 -5 16 10
16 135 l0 140 -83 26 c-93 28 -97 29 -97 15z"/>
<path d="M6661 3088 c0 -18 -7 -28 -16 -28 -13 0 -15 -22 -15 -135 l0 -135 40
-20 40 -20 -1 182 c-1 101 -4 171 -6 156 -2 -16 -10 -28 -18 -28 -8 0 -16 12
-18 28 l-4 27 -2 -27z"/>
<path d="M3380 938 c-22 -15 -40 -38 -49 -64 -13 -38 -13 -44 7 -85 16 -32 19
-45 9 -48 -6 -2 -31 -22 -53 -45 -46 -46 -64 -93 -64 -173 l0 -53 105 0 c94 0
105 -2 105 -18 0 -32 22 -42 92 -42 39 0 68 -4 68 -10 0 -5 -16 -10 -35 -10
-29 0 -35 -4 -35 -20 0 -20 5 -21 107 -18 93 3 108 5 111 21 3 14 -4 17 -32
17 -20 0 -36 5 -36 10 0 6 29 10 68 10 40 0 73 5 80 12 16 16 16 210 0 226 -8
8 -46 12 -105 12 -83 0 -94 2 -105 20 -7 11 -30 32 -51 47 -36 25 -37 27 -20
46 12 13 18 35 18 68 0 41 -5 53 -31 80 -44 43 -105 50 -154 17z m131 -37 c35
-35 38 -77 9 -114 -40 -51 -126 -43 -156 15 -47 92 73 172 147 99z m55 -206
l39 -30 -70 -3 c-38 -2 -75 -8 -82 -14 -8 -7 -13 -35 -13 -79 l0 -69 -90 0
-90 0 0 52 c0 61 33 125 81 156 25 16 47 19 109 18 69 -1 81 -5 116 -31z m242
-157 c3 -118 17 -110 -188 -106 l-145 3 -3 89 c-2 49 0 96 2 103 5 11 39 13
168 11 l163 -3 3 -97z"/>
<path d="M3490 535 l0 -85 150 0 150 0 0 85 0 85 -150 0 -150 0 0 -85z"/>
<path d="M4280 655 l0 -305 285 0 285 0 0 95 0 95 -135 0 -135 0 0 115 0 115
135 0 135 0 0 95 0 95 -285 0 -285 0 0 -305z"/>
<path d="M4890 855 l0 -105 -135 0 -135 0 0 -95 0 -95 135 0 135 0 0 -105 0
-105 145 0 145 0 0 305 0 305 -145 0 -145 0 0 -105z"/>
<path d="M9330 855 c0 -43 1 -45 28 -45 15 0 33 5 40 12 9 9 12 9 12 0 0 -8
26 -12 86 -12 l85 0 -3 33 c-3 28 -7 32 -35 35 -18 2 -33 7 -33 13 0 5 -7 9
-15 9 -8 0 -15 -4 -15 -9 0 -15 -70 -18 -82 -4 -6 7 -23 13 -39 13 -28 0 -29
-2 -29 -45z"/>
<path d="M9610 855 l0 -45 79 0 c54 0 81 4 84 13 4 10 6 10 6 0 1 -17 77 -17
87 -1 5 8 0 9 -14 6 -12 -4 -22 -2 -22 3 0 5 9 9 21 9 14 0 19 5 17 18 -3 13
-14 17 -51 17 -31 0 -47 4 -47 13 0 6 -7 12 -15 12 -8 0 -15 -4 -15 -10 0 -5
-11 -10 -24 -10 -14 0 -28 -5 -32 -12 -5 -8 0 -9 14 -6 12 4 22 2 22 -3 0 -5
-9 -9 -20 -9 -11 0 -20 -7 -20 -15 0 -8 -9 -15 -20 -15 -17 0 -20 7 -20 40 0
29 -4 40 -15 40 -11 0 -15 -12 -15 -45z"/>
<path d="M9910 855 c0 -25 5 -45 10 -45 6 0 10 9 10 20 0 15 7 20 25 20 18 0
25 -5 25 -20 0 -11 7 -20 15 -20 10 0 15 10 15 30 0 17 5 30 11 30 5 0 7 -5 4
-10 -3 -6 -4 -19 0 -29 5 -17 17 -19 157 -17 115 1 152 4 156 14 2 7 -5 16
-17 19 -12 3 -21 9 -21 13 0 5 10 6 22 2 13 -3 19 -1 15 5 -4 7 -71 11 -179
11 -115 0 -174 4 -176 11 -2 6 -19 11 -38 11 -34 0 -34 0 -34 -45z"/>
<path d="M9332 598 c-28 -28 -7 -78 33 -78 12 0 26 5 32 11 8 8 13 8 17 0 4
-6 25 -11 46 -11 35 0 39 3 43 28 l4 27 2 -27 1 -26 94 -1 95 0 4 27 4 27 2
-27 c0 -16 5 -28 10 -28 5 0 12 12 14 28 l4 27 2 -27 c0 -18 7 -28 16 -28 8 0
15 -4 15 -10 0 -5 7 -10 15 -10 8 0 15 5 15 10 0 6 7 10 15 10 8 0 15 6 15 13
0 9 2 9 8 -1 6 -8 32 -12 80 -11 l71 2 4 31 4 31 1 -32 c1 -23 7 -33 18 -33
11 0 14 8 12 33 l-3 32 -79 3 c-50 1 -83 7 -88 15 -6 9 -10 9 -17 -1 -6 -10
-34 -13 -104 -13 l-96 1 -4 -28 -4 -27 -2 26 -1 27 -111 0 c-68 0 -115 4 -122
11 -15 15 -50 14 -65 -1z"/>
<path d="M10072 598 c-16 -16 -15 -53 2 -67 8 -7 55 -11 129 -10 l116 2 4 31
4 31 1 -32 2 -32 70 0 c73 1 96 13 65 36 -17 12 -18 13 -1 13 9 0 15 4 12 9
-3 5 -69 9 -145 9 l-140 0 -4 -32 -4 -31 -1 30 c-2 25 -8 33 -35 43 -42 15
-60 15 -75 0z"/>
<path d="M3140 226 l0 -44 124 0 125 -1 4 27 4 27 2 -27 c1 -28 31 -42 31 -15
0 9 2 9 8 0 11 -17 174 -12 180 5 2 7 -5 16 -17 19 -12 3 -21 9 -21 13 0 5 10
6 22 2 14 -3 19 -1 14 6 -9 14 -169 13 -178 -2 -6 -8 -8 -8 -8 1 0 9 -26 12
-89 12 l-90 0 -4 -32 -4 -32 -1 30 c-2 32 -35 55 -79 55 -21 0 -23 -5 -23 -44z"/>
<path d="M4412 243 c-5 -16 -13 -36 -17 -45 -5 -13 -2 -18 8 -18 8 0 17 7 21
15 3 8 10 15 16 15 5 0 10 -7 10 -15 0 -8 6 -15 14 -15 8 0 17 -6 19 -12 4 -9
8 -10 14 -2 14 19 43 25 43 9 0 -8 7 -15 15 -15 8 0 15 5 15 10 0 6 13 10 29
10 24 0 31 5 36 29 6 29 7 29 36 14 24 -12 28 -18 19 -27 -9 -8 -14 -8 -17 2
-3 6 -12 12 -20 12 -13 0 -13 -3 -3 -16 17 -20 64 -14 68 8 2 12 -6 21 -23 28
-14 5 -23 14 -20 20 4 6 15 4 30 -6 28 -18 42 -63 23 -75 -9 -6 -7 -9 9 -9 14
0 24 9 31 29 8 23 15 28 31 24 12 -3 21 -9 21 -13 0 -5 -10 -6 -22 -2 -14 3
-19 2 -14 -6 4 -7 18 -12 32 -12 17 0 24 5 24 20 0 11 -7 20 -15 20 -8 0 -15
4 -15 8 0 4 9 8 20 8 15 0 20 -7 20 -28 0 -19 5 -28 16 -28 9 0 12 5 8 13 -6
9 -5 9 7 0 8 -6 31 -11 51 -11 32 0 37 3 41 27 l4 26 2 -27 c0 -17 7 -28 15
-28 8 0 17 12 19 28 l4 27 2 -27 c2 -41 21 -34 21 7 l0 35 -72 -1 c-40 -1 -79
-6 -87 -13 -9 -6 -12 -7 -9 -1 4 6 2 17 -3 25 -8 12 -12 12 -16 3 -3 -8 -23
-13 -49 -13 -28 0 -44 -4 -44 -12 0 -8 -3 -9 -8 -3 -15 21 -51 34 -91 33 -34
0 -41 -4 -41 -20 0 -15 -3 -18 -13 -10 -7 6 -38 11 -70 11 -55 0 -57 -1 -58
-27 0 -25 -1 -24 -16 11 -18 44 -37 48 -51 10z"/>
<path d="M3060 85 l0 -45 54 0 c52 0 55 1 59 27 l4 28 2 -27 1 -26 139 0 140
1 4 26 4 26 2 -27 c0 -17 7 -28 15 -28 8 0 17 12 19 28 l4 27 2 -27 c1 -27 21
-41 21 -15 0 9 2 9 8 0 4 -6 26 -12 49 -11 37 0 42 3 46 27 l4 26 2 -27 c2
-39 19 -35 24 5 l4 32 1 -32 c1 -19 7 -33 15 -33 8 0 11 14 10 41 -1 44 -10
60 -22 41 -5 -8 -31 -13 -69 -13 -40 -1 -62 -5 -62 -12 0 -8 -3 -8 -9 1 -6 10
-29 12 -85 10 -56 -2 -76 0 -76 10 0 6 -7 12 -15 12 -8 0 -15 -6 -15 -14 0 -9
-7 -12 -20 -9 -11 3 -20 9 -20 14 0 5 -7 9 -15 9 -8 0 -15 -4 -15 -10 0 -5
-13 -10 -30 -10 -16 0 -30 -5 -30 -11 0 -6 7 -9 15 -5 8 3 15 2 15 -3 0 -5 -9
-11 -20 -14 -15 -4 -20 0 -20 14 0 14 -7 19 -30 19 -27 0 -30 -3 -30 -30 0
-25 -4 -30 -25 -30 -32 0 -34 27 -2 33 l22 4 -22 2 c-33 2 -29 29 5 34 19 3
14 4 -15 6 l-43 1 0 -45z"/>
<path d="M4530 120 c0 -5 -16 -10 -35 -10 -33 0 -35 -2 -35 -35 0 -41 17 -47
23 -7 l4 27 2 -27 c2 -40 29 -36 34 4 l4 33 1 -32 c1 -23 7 -33 18 -33 8 0 12
5 9 11 -4 6 1 5 13 -2 11 -7 27 -9 38 -4 17 7 17 8 -6 15 -24 8 -24 8 -2 9 12
1 25 -6 28 -14 4 -8 14 -15 23 -16 9 -1 6 -4 -9 -9 l-25 -8 26 -1 c42 -2 79
21 79 49 0 20 5 25 25 25 14 0 25 -3 25 -7 0 -5 -9 -8 -20 -8 -13 0 -20 -7
-20 -20 0 -19 6 -20 109 -19 l110 2 4 26 c4 26 4 26 6 -2 1 -27 3 -28 43 -25
45 3 64 26 29 35 -12 3 -21 9 -21 13 0 5 10 6 22 2 14 -3 19 -1 14 6 -4 6 -46
10 -112 10 -80 -1 -109 3 -116 13 -7 11 -11 11 -15 2 -3 -9 -31 -13 -89 -13
-50 0 -84 -4 -84 -10 0 -6 -8 -5 -20 2 -16 10 -24 10 -40 0 -11 -7 -20 -9 -19
-5 3 19 -2 33 -11 33 -5 0 -10 -4 -10 -10z"/>
</g>
</svg>
