<?xml version="1.0" standalone="no"?>
<!DOCTYPE svg PUBLIC "-//W3C//DTD SVG 20010904//EN"
 "http://www.w3.org/TR/2001/REC-SVG-20010904/DTD/svg10.dtd">
<svg version="1.0" xmlns="http://www.w3.org/2000/svg"
 width="1505.000000pt" height="512.000000pt" viewBox="0 0 1505.000000 512.000000"
 preserveAspectRatio="xMidYMid meet">
<metadata>
Created by potrace 1.16, written by Peter Selinger 2001-2019
</metadata>
<g transform="translate(0.000000,512.000000) scale(0.100000,-0.100000)"
fill="#000000" stroke="none">
<path d="M1750 2335 l0 -915 601 0 c477 0 600 3 597 13 -3 6 -67 211 -142 454
l-138 442 67 213 c72 227 71 224 164 511 34 104 61 191 61 193 0 2 -272 4
-605 4 l-605 0 0 -915z"/>
<path d="M3390 3234 c0 -8 -5 -14 -11 -14 -5 0 -7 -4 -4 -10 3 -5 2 -10 -2
-10 -7 0 -51 -71 -92 -148 -8 -15 -27 -44 -43 -65 -29 -36 -29 -39 -14 -62 12
-18 13 -26 3 -32 -21 -13 -36 -12 -30 4 5 12 7 12 14 1 7 -10 9 -9 9 4 0 42
-22 18 -91 -97 -41 -68 -81 -138 -90 -154 -9 -17 -28 -47 -43 -66 -25 -33 -45
-111 -25 -99 5 3 9 12 9 20 0 8 5 12 10 9 6 -3 10 -9 10 -13 0 -14 -61 -74
-68 -68 -3 4 -1 11 6 15 7 4 15 21 18 37 6 34 -5 25 -33 -26 -10 -19 -31 -54
-46 -77 -15 -24 -27 -47 -27 -53 0 -10 53 -100 122 -210 16 -25 34 -45 41 -45
7 0 11 -9 10 -19 -1 -11 23 -58 53 -105 30 -46 54 -91 54 -98 0 -7 4 -13 9
-13 5 0 14 -13 21 -30 7 -16 15 -30 19 -30 4 0 12 -12 18 -27 7 -16 18 -37 25
-47 31 -47 84 -134 101 -166 21 -39 43 -65 35 -40 -8 21 28 24 36 3 5 -13 4
-13 -8 -4 -11 9 -15 8 -20 -6 -4 -10 -3 -19 3 -21 5 -2 8 -9 5 -16 -4 -11 43
-42 52 -33 2 1 -1 16 -5 33 -5 16 -10 23 -10 15 -1 -8 -4 -12 -7 -9 -3 4 1 18
9 33 12 23 15 25 20 11 4 -11 3 -15 -4 -10 -7 4 -9 -1 -5 -15 3 -11 9 -30 12
-41 5 -20 14 -20 369 -20 255 0 366 3 371 11 4 8 9 7 15 -2 4 -7 11 -10 15 -6
4 4 2 13 -4 19 -9 9 -12 226 -12 885 l0 873 -255 0 c-174 0 -255 3 -255 11 0
7 79 9 255 7 164 -2 257 1 259 7 3 6 5 1 6 -10 1 -17 2 -18 8 -3 4 10 6 -380
4 -865 -1 -485 0 -892 3 -904 21 -86 25 43 25 870 0 490 -3 902 -6 914 l-6 23
-419 -1 c-356 0 -419 -3 -419 -15z"/>
<path d="M4840 2335 l0 -915 335 0 335 0 0 193 0 193 58 49 c31 28 64 56 73
63 17 13 2 31 300 -335 l132 -163 455 0 454 0 -28 38 c-24 30 -407 510 -713
889 -36 46 -66 87 -66 92 0 5 47 58 104 118 58 59 137 142 175 183 39 41 150
158 246 260 96 102 188 200 204 218 l30 32 -360 0 -359 -1 -125 -116 c-480
-446 -564 -522 -572 -516 -5 2 -8 146 -8 319 l0 314 -335 0 -335 0 0 -915z"/>
<path d="M7354 3236 c-141 -35 -265 -173 -299 -333 -22 -102 -21 -1050 0
-1142 32 -135 125 -254 242 -309 l58 -27 690 0 690 0 56 28 c108 53 185 140
231 263 22 58 22 70 26 579 3 569 1 606 -53 720 -38 79 -119 158 -202 198
l-68 32 -660 2 c-500 1 -672 -1 -711 -11z m932 -425 c74 -34 74 -34 74 -488 0
-359 -2 -401 -18 -433 -31 -63 -59 -70 -295 -70 -241 0 -264 5 -296 69 -20 39
-21 56 -21 437 0 534 -20 503 315 503 174 1 205 -2 241 -18z"/>
<path d="M9650 3241 c-127 -39 -230 -165 -277 -341 -16 -58 -18 -118 -18 -565
0 -556 0 -554 67 -692 30 -61 55 -97 98 -137 99 -91 56 -87 841 -84 l684 3 54
30 c99 55 174 166 212 313 15 58 19 110 19 231 l0 156 -325 0 -325 0 -4 -30
c-3 -16 -9 -69 -14 -118 -7 -64 -16 -96 -33 -121 -40 -59 -46 -61 -260 -64
-233 -4 -268 2 -304 56 l-25 37 0 405 c0 389 1 406 20 438 34 56 64 62 297 62
189 0 211 -2 240 -20 46 -28 63 -67 63 -150 l0 -70 335 0 335 0 0 123 c0 211
-42 329 -160 449 -103 104 -57 98 -834 97 -364 0 -672 -4 -686 -8z"/>
<path d="M11660 2335 l0 -915 345 0 345 0 0 330 0 330 23 5 c12 3 141 4 287 3
l265 -3 3 -332 2 -333 355 0 355 0 0 915 0 915 -355 0 -355 0 0 -325 0 -325
-290 0 -290 0 0 325 0 325 -345 0 -345 0 0 -915z"/>
<path d="M13790 1641 c0 -16 8 -20 38 -23 l37 -3 3 -97 c2 -90 4 -98 22 -98
19 0 20 7 20 100 l0 100 40 0 c33 0 40 3 40 20 0 19 -7 20 -100 20 -92 0 -100
-1 -100 -19z"/>
<path d="M14030 1540 c0 -113 1 -120 20 -120 18 0 20 7 20 80 0 44 4 80 8 80
4 0 19 -35 33 -77 20 -61 30 -79 46 -81 18 -3 25 8 49 80 l29 83 3 -82 c3 -81
3 -83 27 -83 l25 0 0 121 0 120 -37 -3 c-34 -3 -37 -6 -54 -53 -9 -27 -22 -63
-29 -80 l-12 -30 -30 83 c-29 81 -30 82 -64 82 l-34 0 0 -120z"/>
</g>
</svg>
